<svg width="672" height="160" viewBox="0 0 672 160" fill="none" xmlns="http://www.w3.org/2000/svg">
  <rect x="0" y="0" width="160" height="160" rx="28" fill="url(#paint0_linear)"/>
  <path d="M28 96.8614L68.8315 57.7465C71.8666 54.8371 76.6352 54.8896 79.6055 57.865L101.089 79.3913C104.026 82.3351 108.73 82.4204 111.771 79.5847L130.999 61.6506" stroke="white" stroke-width="10" stroke-linecap="round"/>
  <path d="M29 114.289L76.7843 70.2866C79.7336 67.5719 84.2715 67.7059 87.0564 70.5905L102.194 86.2769C104.967 89.1496 109.48 89.304 112.442 86.6278L146 56" stroke="white" stroke-width="10" stroke-linecap="round"/>
  <path d="M42.4141 109.5L52.9141 120" stroke="white" stroke-width="10" stroke-linecap="round"/>
  <path d="M109.414 104.5L119.914 115" stroke="white" stroke-width="10" stroke-linecap="round"/>
  <circle cx="45.5" cy="112.5" r="9.5" fill="white"/>
  <circle cx="112.5" cy="107.5" r="9.5" fill="white"/>
  <path d="M92.5593 36.5C92.5593 45.9855 78.2134 60 78.2134 60C78.2134 60 63.8674 45.9855 63.8674 36.5C63.8674 28.4919 70.2815 22 78.2134 22C86.1452 22 92.5593 28.4919 92.5593 36.5Z" fill="white"/>
  <circle cx="78.2135" cy="36.5" r="5.5" fill="#FF4040"/>
  <path d="M232.903 45.6727H256.231L296.067 107.236L336.159 45.6727H359.235V125H334.883V82.7273C334.883 78.2424 335.034 73.203 335.337 67.6091C333.72 70.891 331.397 74.8617 328.368 79.5212L298.49 124.242H292.124L262.372 79.5212C259.471 75.125 257.098 71.1543 255.254 67.6091C255.556 72.2686 255.708 77.3081 255.708 82.7273V125H232.903V45.6727Z" fill="#111827"/>
  <path d="M402.84 45.6727H431.109L471.7 125H444.569L436.002 107.62H397.316L388.749 125H362.602L402.84 45.6727ZM404.518 89.4818H428.926L416.783 64.2823L404.518 89.4818Z" fill="#111827"/>
  <path d="M481.892 45.6727H506.875V106.347H558.243V125H481.892V45.6727Z" fill="#111827"/>
  <path d="M568.408 45.6727H643.147V63.9469H593.391V76.5348H622.746V94.4318H593.391V106.726H644.099V125H568.408V45.6727Z" fill="#111827"/>
  <path d="M641.596 45.6727H669L637.838 83.8636L671.523 125H642.293L623.637 101.329L605.486 125H577.965L612.155 83.2326L580.867 45.6727H610.349L626.789 67.2311L641.596 45.6727Z" fill="#111827"/>
  <defs>
    <linearGradient id="paint0_linear" x1="18" y1="18" x2="147" y2="149" gradientUnits="userSpaceOnUse">
      <stop stop-color="#FF3030"/>
      <stop offset="1" stop-color="#FF5959"/>
    </linearGradient>
  </defs>
</svg>
